Coordinates
version=1
nRows=15
nColumns=46
inDegrees=yes

Units are S.I. units (second, meters, Newtons, ...)
Angles are in degrees.

endheader
time	pelvis_tilt	pelvis_list	pelvis_rotation	pelvis_tx	pelvis_ty	pelvis_tz	bb_angle	bb_tx	bb_ty	bb_tz	hip_flexion_r	hip_adduction_r	hip_rotation_r	knee_angle_r	knee_angle_r_beta	ankle_angle_r	subtalar_angle_r	mtp_angle_r	crank_angle_r	hip_flexion_l	hip_adduction_l	hip_rotation_l	knee_angle_l	knee_angle_l_beta	ankle_angle_l	subtalar_angle_l	mtp_angle_l	crank_angle_l	lumbar_extension	lumbar_bending	lumbar_rotation	arm_flex_r	arm_add_r	arm_rot_r	elbow_flex_r	pro_sup_r	wrist_flex_r	wrist_dev_r	arm_flex_l	arm_add_l	arm_rot_l	elbow_flex_l	pro_sup_l	wrist_flex_l	wrist_dev_l
      5.00500000	    -14.74820285	      0.93371641	      7.42031706	      0.07017798	      1.11228831	     -0.25577517	      0.00000000	      0.50000000	      0.00000000	      0.25000000	     73.55980614	     -5.32148641	      6.11190066	    105.11589204	      1.83461841	    -20.72623229	    -14.10046810	      0.00000000	      0.00000000	     54.61950831	     -0.30275394	     -0.01053256	     41.98977994	      0.73285991	     -6.33930464	     -2.85499062	      0.00000000	      0.00000000	    -66.87391574	     -0.33058067	     -1.37976786	     88.66277927	    -45.41729321	     35.89222343	     80.54444388	     38.99405485	      0.00000000	      0.00000000	     89.51666529	    -23.53732072	     36.47778419	     85.47341587	     34.62632837	      0.00000000	      0.00000000
      5.01000000	    -14.73644925	      0.46523166	      6.97835631	      0.07028694	      1.11186756	     -0.25719512	      0.00000000	      0.50000000	      0.00000000	      0.25000000	     75.00566341	     -4.82308318	      6.07966910	    106.63524127	      1.86113606	    -20.25294143	    -14.15691544	      0.00000000	      0.00000000	     53.10133707	     -0.95776879	      0.07552905	     39.91223973	      0.69660000	     -7.10408216	     -2.07361531	      0.00000000	      0.00000000	    -66.73040372	     -0.05171196	     -0.48072215	     88.83915289	    -45.23537838	     35.86393405	     80.64442527	     39.02109816	      0.00000000	      0.00000000	     89.49083748	    -23.68105610	     36.48476133	     85.40329831	     34.61944931	      0.00000000	      0.00000000
      5.01500000	    -14.59445563	      0.17026116	      6.49521289	      0.07041033	      1.11203826	     -0.25844865	      0.00000000	      0.50000000	      0.00000000	      0.25000000	     76.29938549	     -4.36550375	      6.18943124	    108.04387696	      1.88572139	    -19.71657967	    -13.99392274	      0.00000000	      0.00000000	     51.40152817	     -1.59893946	     -0.19398774	     37.81937385	      0.66007259	     -8.11509768	     -0.99518624	      0.00000000	      0.00000000	    -66.80750984	      0.06081072	      0.26625281	     88.91503264	    -45.18867751	     35.72087195	     80.84648309	     39.06046993	      0.00000000	      0.00000000	     89.45524396	    -23.70088948	     36.67850915	     85.22696437	     34.61225648	      0.00000000	      0.00000000
      5.02000000	    -14.27545814	      0.12988476	      5.85586832	      0.07074553	      1.11272226	     -0.25958727	      0.00000000	      0.50000000	      0.00000000	      0.25000000	     77.34617637	     -3.85911479	      6.59499333	    109.34969338	      1.90851219	    -18.89999243	    -13.47177719	      0.00000000	      0.00000000	     49.40951939	     -2.18424154	     -0.86301025	     35.74972821	      0.62395046	     -8.93903834	      0.11560414	      0.00000000	      0.00000000	    -67.15174386	     -0.16768449	      1.89236529	     88.87269373	    -46.95442744	     35.33358094	     82.31501651	     39.41148270	      0.00000000	      0.00000000	     89.48219486	    -22.21674473	     36.81946069	     84.21705737	     34.53531800	      0.00000000	      0.00000000
      5.02500000	    -14.38000118	     -0.30664181	      5.34713366	      0.07063758	      1.11260909	     -0.26103079	      0.00000000	      0.50000000	      0.00000000	      0.25000000	     78.85289882	     -3.33700816	      6.52127681	    110.49534744	      1.92850762	    -18.40015973	    -13.61241372	      0.00000000	      0.00000000	     48.14298816	     -2.87347608	     -1.06858840	     34.05330120	      0.59434223	     -9.69986835	      0.86137894	      0.00000000	      0.00000000	    -66.96685512	      0.06080652	      2.71821062	     89.02408113	    -46.75129880	     35.31358317	     82.42834973	     39.42912269	      0.00000000	      0.00000000	     89.43967253	    -22.36901911	     36.84512488	     84.15136954	     34.53179753	      0.00000000	      0.00000000
      5.03000000	    -14.23086846	     -0.29635916	      4.57551107	      0.07077564	      1.11338347	     -0.26200574	      0.00000000	      0.50000000	      0.00000000	      0.25000000	     80.05744306	     -2.71929388	      6.91839444	    111.52447826	      1.94646934	    -17.63032434	    -13.54422977	      0.00000000	      0.00000000	     46.43581830	     -3.52081218	     -2.17316789	     32.25458626	      0.56294873	    -10.69242370	      2.00934481	      0.00000000	      0.00000000	    -67.16557722	     -0.22298664	      3.42673797	     89.07225087	    -46.86768467	     34.93259669	     82.85031310	     39.46359583	      0.00000000	      0.00000000	     89.45191541	    -22.29271529	     37.19644844	     83.88322309	     34.53512432	      0.00000000	      0.00000000
      5.03500000	    -14.43528851	     -0.67880926	      4.04434207	      0.07042451	      1.11350734	     -0.26351621	      0.00000000	      0.50000000	      0.00000000	      0.25000000	     81.61442004	     -2.23495588	      6.79586825	    112.37473176	      1.96130907	    -17.50505095	    -13.44435090	      0.00000000	      0.00000000	     45.36336203	     -4.15536620	     -2.58026960	     30.79990661	      0.53755978	    -11.46616828	      2.66596721	      0.00000000	      0.00000000	    -66.94427249	     -0.00250869	      4.28013091	     89.17531156	    -46.75194254	     34.82186041	     83.01060570	     39.47451314	      0.00000000	      0.00000000	     89.41614341	    -22.40335990	     37.17471766	     83.80688128	     34.52845463	      0.00000000	      0.00000000
      5.04000000	    -14.39010869	     -0.51450758	      3.12855436	      0.07054803	      1.11442725	     -0.26433540	      0.00000000	      0.50000000	      0.00000000	      0.25000000	     82.88785240	     -1.49678407	      7.27626198	    113.12590295	      1.97441948	    -16.79093231	    -13.65203866	      0.00000000	      0.00000000	     43.84117792	     -4.73503142	     -4.06510699	     29.34108711	      0.51209858	    -12.33685198	      3.73262033	      0.00000000	      0.00000000	    -67.12415619	     -0.54809661	      5.05220140	     89.17023935	    -47.30106762	     34.14193421	     83.78010949	     39.50275421	      0.00000000	      0.00000000	     89.44142572	    -21.97050994	     37.44341939	     83.45824686	     34.53125205	      0.00000000	      0.00000000
      5.04500000	    -14.46431137	     -0.46913561	      2.42771845	      0.07028917	      1.11504697	     -0.26561291	      0.00000000	      0.50000000	      0.00000000	      0.25000000	     84.22274775	     -0.93074680	      7.53550789	    113.75395175	      1.98538100	    -16.34113101	    -13.98193112	      0.00000000	      0.00000000	     42.61800932	     -5.14388651	     -5.11072582	     28.12625542	      0.49089576	    -13.11155742	      4.38929559	      0.00000000	      0.00000000	    -67.14328070	     -0.74719766	      5.80180175	     89.21322138	    -47.75558552	     33.79358979	     84.42225750	     39.51804860	      0.00000000	      0.00000000	     89.44293895	    -21.61950089	     37.47000943	     83.13352650	     34.51815340	      0.00000000	      0.00000000
      5.05000000	    -14.72092578	     -0.60245534	      1.79830645	      0.07006112	      1.11575654	     -0.26672916	      0.00000000	      0.50000000	      0.00000000	      0.25000000	     85.64937643	     -0.33289690	      7.55479831	    114.14665930	      1.99223503	    -16.03347526	    -14.23478669	      0.00000000	      0.00000000	     41.70581860	     -5.63706379	     -5.93025235	     27.09552746	      0.47290617	    -13.85771760	      5.02639181	      0.00000000	      0.00000000	    -67.05118744	     -0.87663097	      7.19131141	     89.22702545	    -49.34535025	     33.60479562	     85.77564076	     39.40781886	      0.00000000	      0.00000000	     89.44798408	    -20.37732372	     37.23955338	     82.40688717	     34.53886983	      0.00000000	      0.00000000
      5.05500000	    -14.96726812	     -0.68148246	      1.20596260	      0.06958742	      1.11643751	     -0.26772624	      0.00000000	      0.50000000	      0.00000000	      0.25000000	     87.00501940	      0.31754651	      7.66043065	    114.40668106	      1.99677327	    -15.70458721	    -14.53892770	      0.00000000	      0.00000000	     40.89851129	     -6.02530852	     -6.61364276	     26.26479832	      0.45840721	    -14.59962776	      5.39244310	      0.00000000	      0.00000000	    -66.90522580	     -0.93382231	      7.69864651	     89.28434593	    -49.24782358	     33.33529825	     86.06504013	     39.36315860	      0.00000000	      0.00000000	     89.45160011	    -20.47197579	     37.25981853	     82.27352967	     34.54280836	      0.00000000	      0.00000000
      5.06000000	    -15.25823167	     -0.82935364	      0.75478365	      0.06899199	      1.11711972	     -0.26867931	      0.00000000	      0.50000000	      0.00000000	      0.25000000	     88.31625781	      0.84440627	      7.64267089	    114.51196278	      1.99861078	    -15.34066162	    -14.80217120	      0.00000000	      0.00000000	     40.28938739	     -6.35139092	     -6.94599654	     25.65770906	      0.44781150	    -15.25098433	      5.56236592	      0.00000000	      0.00000000	    -66.73909286	     -0.84372723	      8.17924913	     89.34467534	    -49.15261423	     33.14174088	     86.27969610	     39.34948502	      0.00000000	      0.00000000	     89.45295403	    -20.61938025	     37.16632005	     82.20357412	     34.53323528	      0.00000000	      0.00000000
      5.06500000	    -15.43860658	     -0.84583453	      0.15944868	      0.06821780	      1.11798623	     -0.26916484	      0.00000000	      0.50000000	      0.00000000	      0.25000000	     89.46021189	      1.56325904	      7.73505680	    114.43439721	      1.99725701	    -15.20763593	    -15.27870212	      0.00000000	      0.00000000	     39.66174917	     -6.68189818	     -7.54672847	     25.29398584	      0.44146333	    -15.93891416	      5.50347764	      0.00000000	      0.00000000	    -66.70518810	     -0.84718082	      8.55655257	     89.38723382	    -48.76556765	     32.62669377	     86.92383534	     39.28099170	      0.00000000	      0.00000000	     89.46274092	    -20.96073344	     37.04863169	     82.04172201	     34.52681701	      0.00000000	      0.00000000
      5.07000000	    -15.71416804	     -0.97264469	     -0.20359085	      0.06754902	      1.11870956	     -0.27003166	      0.00000000	      0.50000000	      0.00000000	      0.25000000	     90.54108187	      2.00180017	      7.68546844	    114.26472074	      1.99429560	    -14.68326145	    -15.62484759	      0.00000000	      0.00000000	     39.29901076	     -6.90194213	     -7.63737904	     25.17764019	      0.43943272	    -16.40547788	      5.26955449	      0.00000000	      0.00000000	    -66.56636517	     -0.71622642	      8.91041091	     89.43504648	    -48.64693450	     32.46432750	     87.08059902	     39.25097867	      0.00000000	      0.00000000	     89.47933195	    -21.15508618	     36.90997231	     82.01509851	     34.51915606	      0.00000000	      0.00000000
      5.07500000	    -15.86509904	     -1.12083342	     -0.57475257	      0.06645881	      1.11963962	     -0.27036449	      0.00000000	      0.50000000	      0.00000000	      0.25000000	     91.35942607	      2.48998828	      7.55540483	    113.88225270	      1.98762027	    -14.17800382	    -16.05481185	      0.00000000	      0.00000000	     39.02881273	     -7.18719283	     -7.71822207	     25.41887573	      0.44364307	    -16.96525950	      4.67538548	      0.00000000	      0.00000000	    -66.56849759	     -0.62642878	      9.30335893	     89.47108726	    -48.42317052	     32.19884930	     87.36728291	     39.21926977	      0.00000000	      0.00000000	     89.50206642	    -21.36948134	     36.74311925	     81.97041044	     34.50419860	      0.00000000	      0.00000000
